<?xml version="1.0" encoding="UTF-8"?>
<svg version="1.1" xmlns="http://www.w3.org/2000/svg" width="3508" height="877">
<path d="M0 0 C0.33 2.31 0.66 4.62 1 7 C-0.1859375 7.4125 -1.371875 7.825 -2.59375 8.25 C-36.7940049 20.35748032 -66.547998 39.61312093 -82.984375 72.99951172 C-97.95191647 104.84387633 -100.48761653 143.03999643 -88.9309082 176.35351562 C-81.93082084 195.38823594 -70.4554983 210.92490955 -56 225 C-55.50226074 225.51385254 -55.00452148 226.02770508 -54.49169922 226.55712891 C-50.49401177 230.66126708 -46.35339721 234.28190158 -41.75 237.6875 C-40.71311035 238.45549927 -40.71311035 238.45549927 -39.65527344 239.23901367 C-12.71731903 258.91310476 17.421439 272.78013348 47.61282349 286.60122681 C107.00947515 313.83191217 171.13035869 346.12620259 212 399 C212.41717285 399.53012695 212.8343457 400.06025391 213.26416016 400.60644531 C249.69085196 447.11492251 260.85755946 506.99267372 254.40673828 564.82324219 C247.48174519 618.90968281 222.18123646 669.82135727 178.875 703.9375 C176.60950978 705.66265962 174.31229666 707.33830648 172 709 C171.4529541 709.40202637 170.9059082 709.80405273 170.34228516 710.21826172 C137.1510511 734.42364747 93.18954764 750.2620444 52 752 C51.67 749.69 51.34 747.38 51 745 C51.680625 744.72027344 52.36125 744.44054687 53.0625 744.15234375 C56.380156 742.78028123 59.69089582 741.39256669 63 740 C63.62600098 739.73767578 64.25200195 739.47535156 64.89697266 739.20507812 C84.27132204 731.050545 100.54883963 721.52870304 116 707 C116.72574219 706.36191406 117.45148438 705.72382812 118.19921875 705.06640625 C140.95636929 684.10694803 151.58765359 650.99851478 153.1640625 620.86376953 C154.67320711 578.80265155 142.15954323 544.64066321 113.62915039 513.75024414 C108.8065059 508.65034092 103.55297915 504.28821706 98 500 C96.90702823 499.12075456 95.81596261 498.23913568 94.7265625 497.35546875 C65.79263376 474.01436447 31.86305167 457.36124106 -1.25 440.875 C-12.2497138 435.39845934 -23.16951678 429.80351238 -34 424 C-34.9060498 423.51740723 -35.81209961 423.03481445 -36.74560547 422.53759766 C-105.7452777 385.76018123 -181.5192558 340.23550186 -206 261 C-220.11572031 210.8645406 -217.35450812 154.16918877 -192 108 C-191.67386719 107.39075684 -191.34773437 106.78151367 -191.01171875 106.15380859 C-164.89226655 57.41397423 -116.76514752 26.74276872 -64.97167969 11.08447266 C-44.4010798 5.18039024 -21.53045766 -0.75545465 0 0 Z " fill="#FFFFFF" transform="translate(943,71)"/>
<path d="M0 0 C51.15 0 102.3 0 155 0 C154.71125 12.21 154.4225 24.42 154.125 37 C153.93814154 45.34231149 153.7525759 53.68461284 153.57397461 62.02709961 C153.55091684 63.10357439 153.52785908 64.18004917 153.50410259 65.2891444 C153.38284691 70.9591815 153.26229046 76.629233 153.14231491 82.29929733 C153.05002433 86.65716564 152.95655281 91.01500559 152.86183548 95.37282181 C150.94518691 183.71160619 150.71378275 272.02351883 150.79680368 360.37964089 C150.80992426 374.42977355 150.81531349 388.47989067 150.81469727 402.5300293 C150.81465731 403.46085856 150.81461735 404.39168782 150.81457619 405.35072403 C150.81451565 406.74546218 150.81451565 406.74546218 150.8144539 408.16837686 C150.81375315 425.67538813 150.8197004 443.18239213 150.82860712 460.68940098 C150.83112769 465.86711978 150.8325369 471.04483728 150.83293839 476.22255667 C150.83789321 537.86951532 151.41375267 599.50026297 152.9375 661.13018799 C153.02343783 664.6465057 153.10539953 668.16291224 153.18737793 671.67932415 C153.27022646 675.22242723 153.35470087 678.7654901 153.43969727 682.30854225 C153.47824188 683.91652545 153.51651717 685.52451514 153.55444336 687.13251305 C153.92586558 702.75948508 154.4792003 718.37600894 155 734 C103.85 734 52.7 734 0 734 C0 721.69160998 0 721.69160998 0.3671875 715.75 C0.448568 714.35835027 0.52934254 712.96666502 0.60961914 711.57495117 C0.65281281 710.83683197 0.69600647 710.09871277 0.74050903 709.33822632 C3.46504071 661.97019985 4.23201565 614.43249219 5 567 C5.02074711 565.72950302 5.04149422 564.45900604 5.06287003 563.15000916 C6.00912632 504.61693587 6.15792003 446.09081391 6.12856883 387.55095738 C6.12479389 379.14497012 6.12616586 370.73899464 6.13037109 362.33300781 C6.1581733 305.21400887 6.00151492 248.11100807 5 191 C4.96176479 188.76314372 4.92357448 186.52628666 4.88543701 184.28942871 C4.68536362 172.70621433 4.45162779 161.12405841 4.18352509 149.54222488 C4.12243913 146.88876035 4.06296915 144.23526281 4.00372314 141.58175659 C3.29920347 110.2194076 2.27899023 78.87106279 1.06586456 47.52439976 C0.93516224 44.14339716 0.8065308 40.76231663 0.67778778 37.38123894 C0.5660134 34.48821695 0.44849797 31.59544137 0.32898331 28.70272923 C-0.01808476 19.10106212 0 9.63897313 0 0 Z " fill="#FFFFFF" transform="translate(1320,80)"/>
<path d="M0 0 C51.15 0 102.3 0 155 0 C155 12.87438537 154.98540771 25.69236488 154.59765625 38.55078125 C154.5551952 40.04278119 154.51308169 41.53479105 154.47128296 43.02680969 C154.38303067 46.16555867 154.29329542 49.3042597 154.20236206 52.44293213 C153.95994724 60.84055889 153.73363443 69.23863196 153.5078125 77.63671875 C153.47385659 78.89779198 153.47385659 78.89779198 153.43921471 80.18434143 C152.7980385 104.07373882 152.37481026 127.96421465 152.03094769 151.85956216 C151.99998707 154.00089447 151.96859032 156.14222002 151.93709564 158.28354454 C150.97225702 224.12022738 150.84187877 289.95368516 150.87053875 355.796049 C150.87499499 366.23765306 150.87418875 376.67924575 150.86962891 387.12084961 C150.8330829 473.32713163 150.9117523 559.54290774 152.9375 645.73016357 C153.0249497 649.51825568 153.10612554 653.3064747 153.18748474 657.09470177 C153.74470218 683.13504345 153.74470218 683.13504345 154.6953125 709.16343689 C155.04636046 717.46654395 155 725.65937285 155 734 C103.85 734 52.7 734 0 734 C0.99 713.21 1.98 692.42 3 671 C3.40354563 659.15208154 3.79756493 647.31269024 4.0748291 635.46258545 C4.14203092 632.66635209 4.21658206 629.87033428 4.29111958 627.07428837 C5.65198819 575.82867702 6.16793469 524.56755562 6.51740956 473.30684519 C6.55215333 468.23766927 6.58925105 463.16851444 6.62768555 458.09936523 C7.05400768 401.8122842 7.06147018 345.53758905 6.625 289.25 C6.61708199 288.22184504 6.61708199 288.22184504 6.60900402 287.17291927 C5.98531777 206.2560473 4.46498313 125.38556515 1.51960754 44.51754761 C0.98026147 29.67922266 0.49467462 14.84023874 0 0 Z " fill="#FFFFFF" transform="translate(36,80)"/>
<path d="M0 0 C1.3346286 2.05807213 2.5500664 4.11432846 3.75 6.25 C9.05952901 15.39412733 15.13474645 23.95011377 21.26416016 32.55712891 C22.87713719 34.82709349 24.47846816 37.10462383 26.07421875 39.38671875 C31.84232996 47.62728786 37.73636022 55.76532946 43.72314453 63.84838867 C47.65379097 69.15804858 51.52715897 74.50514521 55.375 79.875 C60.770519 87.38900499 66.34739412 94.75366819 71.97460938 102.09521484 C76.50737464 108.01638487 80.96686418 113.98555062 85.375 120 C90.38579906 126.83322459 95.47857501 133.58654552 100.67236328 140.28222656 C103.29611757 143.67699213 105.89597547 147.09009364 108.5 150.5 C113.19606323 156.64521229 117.90222376 162.78244225 122.62109375 168.91015625 C124.19811979 170.95847742 125.77365859 173.00794455 127.34765625 175.05859375 C137.70240989 188.54502898 148.15508335 201.95521516 158.67333984 215.31445312 C160.48963123 217.62208576 162.30386009 219.93133557 164.11791992 222.24072266 C165.03842566 223.41245281 165.95916094 224.58400268 166.88012695 225.75537109 C169.1507407 228.64363363 171.41839982 231.53411605 173.6796875 234.4296875 C179.09946411 241.3619599 184.60014151 248.2210422 190.16357422 255.03857422 C194.11230493 259.88532838 197.9885508 264.7835826 201.8359375 269.7109375 C205.87693012 274.87313039 210.01332195 279.95475217 214.15966797 285.0324707 C217.70111886 289.37755448 221.1814458 293.76458067 224.625 298.1875 C229.06808165 303.88588507 233.68479753 309.41445518 238.375 314.91015625 C243.0704916 320.41740499 247.60717337 326.05630681 252.171875 331.671875 C256.69541398 337.22203275 261.28063507 342.71303354 265.91796875 348.16796875 C268.7782182 351.5381234 271.59241234 354.9400841 274.375 358.375 C278.53988603 363.49527207 282.85738149 368.47127845 287.19604492 373.44384766 C290.42994387 377.15935083 293.59321933 380.91637793 296.6875 384.75 C300.46908773 389.42340641 304.47542225 393.84447692 308.546875 398.265625 C310.87716268 400.86307942 313.07247168 403.52405714 315.25 406.25 C320.13195607 412.30466794 325.45009439 417.91100984 330.78125 423.56640625 C333.65587211 426.61905148 336.43297133 429.73983251 339.16796875 432.91796875 C341.70780706 435.80439481 344.32381439 438.61799971 346.9375 441.4375 C361 456.6239463 361 456.6239463 361 458 C335.97432647 458.23365324 310.94881651 458.40996883 285.92227173 458.51812172 C274.30181404 458.56967514 262.68203426 458.63995317 251.06201172 458.75439453 C240.93335931 458.85410033 230.80519783 458.91858988 220.67606831 458.94088495 C215.31297846 458.95391707 209.95129301 458.98451683 204.58865356 459.05730057 C199.53869385 459.12528387 194.4907139 459.14609604 189.44034004 459.13107681 C187.58914991 459.13382341 185.73789223 459.15365795 183.88709831 459.19205475 C169.90737837 459.46780379 169.90737837 459.46780379 165.16668701 455.81965256 C163.12003312 453.3001101 161.5399827 450.84990823 160 448 C159.16830814 446.82869224 158.32134216 445.66793398 157.453125 444.5234375 C156.72609375 443.48445313 155.9990625 442.44546875 155.25 441.375 C151.17876928 435.60583407 146.98603435 429.94012544 142.734375 424.30297852 C138.86578868 419.16867574 135.0513144 413.99674329 131.25 408.8125 C125.57855398 401.08637642 119.79257375 393.45356572 113.96630859 385.84375 C109.5363643 380.04704106 105.18222978 374.20082638 100.875 368.3125 C95.74036301 361.29768618 90.47075325 354.40411516 85.11108398 347.56005859 C80.8266212 342.0834968 76.63124094 336.54711287 72.47265625 330.97460938 C63.44469996 318.88531153 54.20581752 306.95404689 45 295 C43.75233604 293.37848015 42.50491248 291.75677566 41.25756836 290.13500977 C40.41863284 289.04427958 39.57960276 287.95362212 38.74047852 286.86303711 C36.70570351 284.21842284 34.67218697 281.57286614 32.640625 278.92578125 C26.07223363 270.37184674 19.45380613 261.85737306 12.82763672 253.34814453 C11.01013402 251.01302017 9.19424212 248.6766529 7.37890625 246.33984375 C1.15317215 238.32659827 -5.08518107 230.3238629 -11.36328125 222.3515625 C-13.13627175 220.1000418 -14.90412755 217.84463236 -16.66796875 215.5859375 C-22.11247837 208.62118207 -27.64315309 201.73505505 -33.23608398 194.88891602 C-36.54161947 190.83062998 -39.76883141 186.72852001 -42.9375 182.5625 C-47.39974815 176.70942126 -52.05569643 171.03529391 -56.75537109 165.37182617 C-60.43469222 160.92918321 -64.0312545 156.43589399 -67.5625 151.875 C-71.95734526 146.21252037 -76.58209672 140.78291131 -81.30712891 135.39404297 C-84.43461289 131.82389399 -87.47508744 128.20988586 -90.4375 124.5 C-94.7487891 119.16297669 -99.40644996 114.18457574 -104.12866211 109.21289062 C-107.25112979 105.91858834 -110.22682032 102.60170991 -113 99 C-108.87911351 94.76321358 -104.64289702 90.7431955 -100.16796875 86.8828125 C-97.75157049 84.7842468 -95.37470976 82.645603 -93 80.5 C-89.38323655 77.23609152 -85.73610392 74.01209051 -82.0625 70.8125 C-79.69035571 68.72788836 -77.34443935 66.61571356 -75 64.5 C-69.67665307 59.70092208 -64.31136661 54.9592205 -58.84765625 50.3203125 C-52.26681821 44.72558261 -45.80234102 39.04264888 -39.48046875 33.15625 C-36.02630626 29.94030561 -32.52564408 26.79482045 -28.95703125 23.70703125 C-26.6144085 21.66366569 -24.30726578 19.58319141 -22 17.5 C-18.32198421 14.18246355 -14.62704114 10.88780144 -10.88671875 7.640625 C-9.5904538 6.51343809 -8.30175874 5.37750483 -7.01953125 4.234375 C-6.39433594 3.68265625 -5.76914062 3.1309375 -5.125 2.5625 C-4.57070313 2.06878906 -4.01640625 1.57507813 -3.4453125 1.06640625 C-2 0 -2 0 0 0 Z " fill="#FFFFFF" transform="translate(325,356)"/>
<path d="M0 0 C51.81 0 103.62 0 157 0 C157.33 1.98 157.66 3.96 158 6 C152.52241052 10.0501668 147.0057081 14.01552747 141.36669922 17.83666992 C131.96778694 24.21129381 122.95242626 31.01589889 114 38 C113.36255859 38.49564453 112.72511719 38.99128906 112.06835938 39.50195312 C101.46712947 47.749821 91.06542209 56.21907793 80.83129883 64.91845703 C77.46149905 67.77867733 74.0596899 70.59259543 70.625 73.375 C64.9219866 78.0185276 59.3801402 82.83740409 53.8359375 87.66796875 C50.7646458 90.34233833 47.67185751 92.99002629 44.57006836 95.62890625 C38.48372935 100.80977657 32.54001333 106.11679467 26.671875 111.54296875 C23.81755188 114.16777759 20.91284952 116.72438678 17.984375 119.265625 C14.81235682 122.03801884 11.69001097 124.86511205 8.5625 127.6875 C6.08734669 129.92117493 3.60631688 132.14817716 1.125 134.375 C-4.1035102 139.08065918 -9.28785399 143.83382522 -14.46777344 148.59277344 C-16.47839344 150.4393658 -18.49079639 152.28400766 -20.50341797 154.12841797 C-21.5052081 155.04653493 -22.50683442 155.96483066 -23.50830078 156.88330078 C-25.95612562 159.1281314 -28.40605028 161.37054861 -30.859375 163.609375 C-38.60267046 170.68298004 -46.25841108 177.84697262 -53.90039062 185.02978516 C-56.02918956 187.02739067 -58.16237995 189.02020191 -60.296875 191.01171875 C-66.39246496 196.70299505 -72.4614134 202.3916322 -78.30859375 208.33984375 C-80.00008261 210.00008108 -81.75435797 211.53076185 -83.5625 213.0625 C-90.42720675 218.94653435 -96.65164767 225.57105336 -103 232 C-105.4375 231.3125 -105.4375 231.3125 -108 230 C-108.91857206 227.27884453 -109.24616464 225.67318656 -108.25 222.94897461 C-107.8375 222.27358643 -107.425 221.59819824 -107 220.90234375 C-106.53319824 220.11649902 -106.06639648 219.3306543 -105.58544922 218.52099609 C-105.06225098 217.66844238 -104.53905273 216.81588867 -104 215.9375 C-102.87416555 214.03458231 -101.75194371 212.12952392 -100.6328125 210.22265625 C-100.03629883 209.20961426 -99.43978516 208.19657227 -98.82519531 207.15283203 C-86.35357316 185.60942265 -75.2906095 163.17766911 -64 141 C-63.68677795 140.38558044 -63.37355591 139.77116089 -63.05084229 139.13812256 C-55.27347092 123.87905543 -47.86070538 108.47949563 -40.72198486 92.91172791 C-38.78200511 88.68580829 -36.82103246 84.47013195 -34.84922791 80.25897217 C-22.46790972 53.81468414 -10.84496291 27.11240728 0 0 Z " fill="#FFFFFF" transform="translate(471,80)"/>
<path d="M0 0 C6.6 0 13.2 0 20 0 C20 242.22 20 484.44 20 734 C13.4 734 6.8 734 0 734 C0 491.78 0 249.56 0 0 Z " fill="#FFFFFF" transform="translate(2029,80)"/>
<path d="M0 0 C1.98 0.66 3.96 1.32 6 2 C6 47.87 6 93.74 6 141 C-61.98 141 -129.96 141 -200 141 C-200.33 138.69 -200.66 136.38 -201 134 C-200.28271729 133.69932617 -199.56543457 133.39865234 -198.82641602 133.08886719 C-129.44677608 103.91468725 -64.14922284 64.92357433 -10.5 11.625 C-10.01966309 11.14933594 -9.53932617 10.67367187 -9.04443359 10.18359375 C-5.81535683 6.93975159 -2.88629752 3.5451263 0 0 Z " fill="#FFFFFF" transform="translate(1745,673)"/>
<path d="M0 0 C63.03 0 126.06 0 191 0 C191 41.25 191 82.5 191 125 C187.535 125.495 187.535 125.495 184 126 C181.578125 123.921875 181.578125 123.921875 179.25 120.75 C168.85800995 107.34900848 156.38428336 95.38273039 143 85 C141.81304867 84.01706125 140.62972739 83.02972964 139.44921875 82.0390625 C114.49587206 61.18173631 86.19493625 44.12894377 56.97119141 29.95898438 C55.02057424 29.01000937 53.07876524 28.04449282 51.13671875 27.078125 C42.51487413 22.84733925 33.70747594 19.21168457 24.75 15.75 C23.68539551 15.33766113 22.62079102 14.92532227 21.52392578 14.50048828 C14.10578303 11.67905303 6.61028859 9.24926997 -1 7 C-0.67 4.69 -0.34 2.38 0 0 Z " fill="#FFFFFF" transform="translate(1538,80)"/>
<path d="M0 0 C0.44988281 1.05574219 0.89976562 2.11148438 1.36328125 3.19921875 C13.8134775 32.03942135 29.61627476 58.57303181 50.9453125 81.76171875 C52.88102603 83.87039527 54.75819976 86.01786328 56.625 88.1875 C62.31340022 94.68110756 68.38978377 100.27528833 75.125 105.68359375 C76.9759966 107.17495378 78.81090849 108.68661746 80.625 110.22265625 C96.20709217 123.37004652 114.19701679 134.13091011 133 142 C132.34 144.31 131.68 146.62 131 149 C122.09324114 149.13374997 113.28947047 148.72376772 104.40649414 148.09790039 C102.9843068 148.00065983 101.56209532 147.90377177 100.13986206 147.8072052 C96.31571027 147.54647943 92.49193014 147.2806442 88.66821218 147.01364064 C84.6522315 146.73391993 80.63596255 146.45839525 76.61973572 146.18223572 C69.88585464 145.71854433 63.15221109 145.25151917 56.41870117 144.7824707 C48.64015188 144.2406668 40.86125125 143.70415301 33.08214289 143.17044073 C25.57905688 142.6555467 18.07622985 142.13696879 10.57351494 141.61669731 C7.38751668 141.39582857 4.20143397 141.17624091 1.01527596 140.95768929 C-2.73195191 140.70048174 -6.47894181 140.44004505 -10.22577286 140.17712212 C-11.59911561 140.08126841 -12.97253589 139.98651801 -14.34603691 139.89295959 C-16.22247176 139.76495701 -18.09860338 139.63253225 -19.97471619 139.49989319 C-21.5483438 139.39066072 -21.5483438 139.39066072 -23.15376186 139.27922153 C-25.82633514 139.01703686 -28.37956361 138.57847585 -31 138 C-26.42124465 109.33599618 -21.58844936 80.71710893 -16.7074585 52.10321045 C-15.72055873 46.31573572 -14.73536365 40.5279708 -13.75 34.74023438 C-11.83494632 23.4932144 -9.91809212 12.24650217 -8 1 C-5.07175348 0.02391783 -3.04386724 -0.08226668 0 0 Z " fill="#FFFFFF" transform="translate(766,674)"/>
<path d="M0 0 C1 1 1 1 1.12304783 2.9971323 C1.12212604 3.88113177 1.12120424 4.76513124 1.12025452 5.67591858 C1.12231651 7.19252831 1.12231651 7.19252831 1.12442017 8.73977661 C1.12082489 9.85826996 1.11722961 10.97676331 1.11352539 12.12915039 C1.11367142 13.29972488 1.11381744 14.47029938 1.1139679 15.67634583 C1.11338895 18.89520943 1.10835991 22.11403004 1.10139394 25.33288503 C1.09515957 28.693474 1.09455654 32.05406373 1.09336853 35.41465759 C1.09025546 41.78242342 1.0820424 48.15017216 1.07201904 54.51793045 C1.06085715 61.76569729 1.05534726 69.01346493 1.05032361 76.26123822 C1.03985977 91.17416835 1.0222608 106.08708247 1 121 C-2.74481201 123.03060913 -2.74481201 123.03060913 -5.04150391 122.75512695 C-8.45576742 121.43870748 -11.36178732 119.23087865 -14.375 117.1875 C-57.76578653 88.5744618 -107.50162851 74.53896494 -157.68505859 63.16870117 C-158.87695801 62.89775635 -160.06885742 62.62681152 -161.296875 62.34765625 C-162.88000488 61.99199585 -162.88000488 61.99199585 -164.49511719 61.62915039 C-167 61 -167 61 -169 60 C-169 57.69 -169 55.38 -169 53 C-168.36126953 52.87061035 -167.72253906 52.7412207 -167.06445312 52.60791016 C-113.10814623 41.57999831 -55.80870291 28.40004646 -8.01611328 -0.06347656 C-5.0739155 -1.43018408 -3.00076997 -1.05026949 0 0 Z " fill="#FFFFFF" transform="translate(1694,372)"/>
<path d="M0 0 C0.82927002 0.00757324 1.65854004 0.01514648 2.51293945 0.02294922 C12.5676256 0.29212206 21.37576885 3.2210708 28.625 10.4375 C33.625 16.97408537 33.625 16.97408537 33.625 20.4375 C34.285 20.4375 34.945 20.4375 35.625 20.4375 C35.89828125 19.84582031 36.1715625 19.25414062 36.453125 18.64453125 C41.17870562 9.74468775 51.3055854 4.84337113 60.53833008 1.80859375 C71.79018572 -1.30341472 85.25808542 -1.17283024 95.625 4.4375 C105.7757054 10.44614873 111.21803593 19.45653591 114.22653198 30.68196106 C116.13476068 39.8894788 115.8770445 49.09453084 115.8203125 58.44921875 C115.81657538 60.27195581 115.81373172 62.09469489 115.81173706 63.91743469 C115.80415561 68.67997938 115.78455522 73.44239917 115.7623291 78.20489502 C115.74175147 83.07863679 115.73271003 87.95239904 115.72265625 92.82617188 C115.70130335 102.36334453 115.66616692 111.90039227 115.625 121.4375 C109.025 121.4375 102.425 121.4375 95.625 121.4375 C95.60312622 117.74457764 95.60312622 117.74457764 95.58081055 113.97705078 C95.53032326 105.81459397 95.46370363 97.6523251 95.38928509 89.49005318 C95.34468446 84.54449235 95.30540591 79.59901194 95.27856445 74.65332031 C95.25242829 69.8745049 95.21195379 65.0960007 95.16181374 60.317379 C95.14521448 58.50031297 95.13365721 56.68319319 95.12738609 54.86606216 C95.44305583 39.11803145 95.44305583 39.11803145 89.3125 25 C83.21763749 19.18861947 76.75596594 18.05575379 68.6328125 18.1640625 C59.83205443 18.96413142 52.36843882 22.71876024 46.625 29.4375 C42.76257244 35.54552498 41.47508154 41.02639697 41.41967773 48.21362305 C41.40977814 49.00410034 41.39987854 49.79457764 41.38967896 50.60900879 C41.35808607 53.22238162 41.33331526 55.83577263 41.30859375 58.44921875 C41.28802231 60.26097588 41.26702579 62.07272823 41.24562073 63.88447571 C41.19041965 68.65361664 41.14100169 73.42280074 41.09277344 78.1920166 C41.0425441 83.05838871 40.98686551 87.9246981 40.93164062 92.79101562 C40.82408304 102.33979217 40.72313625 111.88862197 40.625 121.4375 C34.025 121.4375 27.425 121.4375 20.625 121.4375 C20.595271 117.82760132 20.595271 117.82760132 20.56494141 114.14477539 C20.49786468 106.16993967 20.42022809 98.19523151 20.33747292 90.22054386 C20.28764771 85.38818768 20.24131698 80.55585191 20.203125 75.72338867 C20.16609752 71.05486207 20.11969136 66.38651217 20.06693649 61.71813774 C20.04848494 59.94210363 20.03334335 58.16603177 20.02165604 56.38994026 C20.0046343 53.89137011 19.97556319 51.39319657 19.94384766 48.89477539 C19.94168747 48.16972305 19.93952728 47.44467072 19.93730164 46.69764709 C19.80024704 38.17837769 18.32481893 30.03257845 12.625 23.4375 C5.97288613 18.27689148 -1.24203707 17.69813973 -9.375 18.4375 C-18.03287434 20.38493515 -25.11751746 24.31163595 -29.94140625 31.90234375 C-33.63587431 38.90183453 -34.51458036 45.22413184 -34.58032227 53.09521484 C-34.59517166 54.20843613 -34.59517166 54.20843613 -34.61032104 55.34414673 C-34.64171917 57.7788787 -34.66660697 60.21363014 -34.69140625 62.6484375 C-34.71199455 64.3438058 -34.7329915 66.03916918 -34.75437927 67.73452759 C-34.80940631 72.18304446 -34.8589005 76.63160616 -34.90722656 81.0802002 C-34.95758355 85.62512166 -35.0131953 90.16997854 -35.06835938 94.71484375 C-35.17570386 103.62234255 -35.27671487 112.52989663 -35.375 121.4375 C-41.645 121.4375 -47.915 121.4375 -54.375 121.4375 C-54.375 82.1675 -54.375 42.8975 -54.375 2.4375 C-48.105 2.4375 -41.835 2.4375 -35.375 2.4375 C-34.88 9.3675 -34.88 9.3675 -34.375 16.4375 C-33.59125 15.40625 -32.8075 14.375 -32 13.3125 C-23.92434644 3.92574033 -12.10345926 -0.15604583 0 0 Z " fill="#FFFFFF" transform="translate(3051.375,691.5625)"/>
<path d="M0 0 C10.00362684 7.52511631 16.45736907 18.65778493 18.6171875 30.96875 C18.6171875 32.61875 18.6171875 34.26875 18.6171875 35.96875 C12.3471875 35.96875 6.0771875 35.96875 -0.3828125 35.96875 C-0.9190625 34.15375 -1.4553125 32.33875 -2.0078125 30.46875 C-4.74380915 22.29929521 -8.55422502 16.0335935 -16.3828125 11.96875 C-23.25982045 9.3674675 -29.56421707 8.496457 -36.8828125 8.59375 C-37.75550781 8.58214844 -38.62820312 8.57054687 -39.52734375 8.55859375 C-48.50292727 8.59848523 -57.83567934 10.40499975 -64.3828125 16.96875 C-68.92717529 22.17054598 -69.82782331 27.38018797 -69.8828125 34.15625 C-69.88917725 34.83341064 -69.89554199 35.51057129 -69.90209961 36.20825195 C-69.76562891 41.58467013 -68.32668358 45.45482875 -65.05078125 49.69140625 C-55.14794161 58.65360677 -41.04737983 59.88145237 -28.43457031 62.09619141 C-11.77854747 65.06667755 5.57528478 69.08153428 16.6171875 82.96875 C23.62821134 94.10267443 25.33901492 108.53892847 22.47265625 121.3125 C17.7362598 136.01911912 9.07429758 145.05433714 -4.3828125 152.21875 C-20.68561795 159.8925958 -42.2546189 160.53987231 -59.3828125 154.96875 C-73.04507535 149.53276296 -83.20550635 142.31035399 -89.9375 128.86328125 C-93.43933616 120.68887673 -95.3828125 113.95734721 -95.3828125 104.96875 C-88.7828125 104.96875 -82.1828125 104.96875 -75.3828125 104.96875 C-74.9909375 106.9075 -74.5990625 108.84625 -74.1953125 110.84375 C-71.96211454 120.38937292 -68.90818947 128.52483459 -60.3828125 133.96875 C-47.92560903 140.85899807 -33.04243449 142.15573753 -19.3828125 138.34375 C-10.44924981 135.21091451 -4.08515396 130.17325947 0.3046875 121.71875 C3.03768094 113.91019731 3.12711108 106.88985292 0.6171875 98.96875 C-4.01589753 90.34162615 -11.44983078 86.99889728 -20.3828125 83.96875 C-25.22303133 82.77324166 -30.09865412 81.89326642 -35.0078125 81.03125 C-66.60880708 75.14403204 -66.60880708 75.14403204 -77.3828125 65.96875 C-78.32833984 65.20304687 -78.32833984 65.20304687 -79.29296875 64.421875 C-86.77391453 57.75096794 -89.83644259 48.78493858 -90.62109375 38.99609375 C-90.9048646 27.18226535 -88.48291242 16.81233736 -80.3828125 7.96875 C-79.86976563 7.36546875 -79.35671875 6.7621875 -78.828125 6.140625 C-60.13709795 -14.42844783 -22.17864479 -14.18471591 0 0 Z " fill="#FFFFFF" transform="translate(2411.3828125,372.03125)"/>
<path d="M0 0 C6.93 0 13.86 0 21 0 C21.33 24.75 21.66 49.5 22 75 C26.56492226 70.43507774 30.85521747 66.1047018 35.02734375 61.2578125 C37.43201516 58.50553512 39.89991795 55.8137368 42.375 53.125 C47.28819384 47.78388013 52.15379501 42.40204212 57 37 C58.49971128 35.33307353 59.99971321 33.66640851 61.5 32 C62.2425 31.175 62.985 30.35 63.75 29.5 C66 27 68.25 24.5 70.5 22 C71.60794922 20.76830078 71.60794922 20.76830078 72.73828125 19.51171875 C74.27562686 17.80444202 75.81475555 16.09876956 77.35546875 14.39453125 C78.12503906 13.54246094 78.89460938 12.69039062 79.6875 11.8125 C80.37199219 11.05582031 81.05648437 10.29914063 81.76171875 9.51953125 C83.93847271 7.19918196 83.93847271 7.19918196 85.18652344 5.1574707 C87.35815269 2.03011896 88.81528395 0.2513034 92.63452148 -0.55883789 C95.74289815 -0.68885184 98.76904592 -0.61154053 101.875 -0.4375 C102.94492188 -0.40591797 104.01484375 -0.37433594 105.1171875 -0.34179688 C107.74763365 -0.25959543 110.37237854 -0.14477691 113 0 C111.22013219 3.80712255 108.80428438 6.59420412 105.9375 9.625 C104.93447805 10.70143378 103.93187934 11.77826207 102.9296875 12.85546875 C102.43178711 13.38833496 101.93388672 13.92120117 101.42089844 14.47021484 C99.44096093 16.60187953 97.50103448 18.7681876 95.5625 20.9375 C91.10602289 25.90238091 86.58051938 30.80134952 82.05078125 35.69921875 C75.11209757 43.20234571 68.21405861 50.7401809 61.3984375 58.35546875 C59.58589042 60.35399379 57.75935621 62.3328823 55.9140625 64.30078125 C55.37966553 64.87256104 54.84526855 65.44434082 54.29467773 66.03344727 C53.25355416 67.14542354 52.20900094 68.25420261 51.16040039 69.35913086 C48.0278607 72.7094043 45.44659965 76.1179844 43 80 C44.14275391 81.23363281 44.14275391 81.23363281 45.30859375 82.4921875 C50.81860029 88.44693989 56.30105052 94.42222517 61.71484375 100.46484375 C64.33273129 103.36913266 66.97753203 106.24770775 69.625 109.125 C72.60224819 112.36211029 75.55953021 115.6113792 78.4375 118.9375 C82.01937309 123.069109 85.73837958 127.06929927 89.45458984 131.07958984 C93.24205327 135.16957765 96.98441879 139.29689543 100.69921875 143.453125 C102.41651427 145.35410408 104.14651799 147.23703566 105.89453125 149.109375 C106.38945068 149.64167725 106.88437012 150.17397949 107.39428711 150.72241211 C108.35368821 151.75268076 109.3165374 152.77975357 110.28344727 153.80297852 C112.9695316 156.69360451 115.02434505 159.5966898 117 163 C93.86569142 164.9045516 93.86569142 164.9045516 88.13671875 160.83203125 C85.41227565 158.03822468 83.18728675 155.22700294 81 152 C79.91520157 150.73315494 78.81252421 149.48126137 77.6875 148.25 C77.15511719 147.62609375 76.62273438 147.0021875 76.07421875 146.359375 C73.12366556 143.00319021 70.05821031 139.75796097 67 136.5 C62.90796881 132.13728558 58.86837049 127.75504322 54.96875 123.21875 C52.04207474 119.92043343 49.01630968 116.7162515 46 113.5 C41.23106729 108.41363443 36.5669142 103.26951639 32 98 C28.7 94.37 25.4 90.74 22 87 C21.67 112.08 21.34 137.16 21 163 C14.07 163 7.14 163 0 163 C0 109.21 0 55.42 0 0 Z " fill="#FFFFFF" transform="translate(2325,79)"/>
<path d="M0 0 C31.68 0 63.36 0 96 0 C96 5.61 96 11.22 96 17 C71.25 17 46.5 17 21 17 C21 34.82 21 52.64 21 71 C40.8 71 60.6 71 81 71 C81 76.94 81 82.88 81 89 C61.2 89 41.4 89 21 89 C21 107.81 21 126.62 21 146 C47.07 146 73.14 146 100 146 C100 151.61 100 157.22 100 163 C67 163 34 163 0 163 C0 109.21 0 55.42 0 0 Z " fill="#FFFFFF" transform="translate(2325,650)"/>
<path d="M0 0 C6.6 0 13.2 0 20 0 C20.33 23.43 20.66 46.86 21 71 C23.31 68.36 25.62 65.72 28 63 C38.82028868 55.14656467 50.77867742 53.09376491 64 54 C74.72705585 55.80331223 84.23044923 59.13775438 91 68 C98.11168225 79.88550113 100.18304328 91.6157536 100.11352539 105.27368164 C100.11367142 106.04552795 100.11381744 106.81737427 100.1139679 107.61260986 C100.11327898 110.12848866 100.10553513 112.64429061 100.09765625 115.16015625 C100.09578843 116.91849222 100.09436625 118.67682872 100.09336853 120.43516541 C100.08957198 125.03658515 100.0797665 129.63797274 100.06866455 134.23937988 C100.05838853 138.94538946 100.05385771 143.65140429 100.04882812 148.35742188 C100.03814135 157.5716309 100.0205681 166.78580773 100 176 C93.4 176 86.8 176 80 176 C79.98541748 173.60387451 79.97083496 171.20774902 79.95581055 168.73901367 C79.90528664 160.78810473 79.83866096 152.83738798 79.76428509 144.88666821 C79.71971516 140.07005196 79.68043013 135.25351769 79.65356445 130.43676758 C79.62739728 125.78113717 79.58690174 121.12582454 79.53681374 116.47039223 C79.5202352 114.70160208 79.50866517 112.93275707 79.50238609 111.16390038 C79.72284436 93.43307557 79.72284436 93.43307557 72 78 C63.63448501 71.94086531 53.92309027 72.13125617 44 73 C37.34931685 74.46953226 31.38769059 77.73030545 27 83 C22.56750999 90.27619139 20.861963 96.23817811 20.79467773 104.70605469 C20.77982834 105.86272896 20.77982834 105.86272896 20.76467896 107.04277039 C20.73314922 109.58577427 20.70834032 112.12879682 20.68359375 114.671875 C20.66301686 116.43736246 20.64202019 118.20284507 20.62062073 119.96832275 C20.56547601 124.61086091 20.51603325 129.25344298 20.46777344 133.89605713 C20.41750289 138.63517149 20.36184583 143.37422225 20.30664062 148.11328125 C20.199152 157.4088018 20.09818431 166.70437651 20 176 C13.4 176 6.8 176 0 176 C0 117.92 0 59.84 0 0 Z " fill="#FFFFFF" transform="translate(2599,352)"/>
<path d="M0 0 C31.6780286 1.89636479 63.33947843 4.02146687 95 6.1875 C96.01119904 6.25667885 97.02239807 6.3258577 98.0642395 6.39713287 C110.70965119 7.26245391 123.35489947 8.13014424 136 9 C135.43639556 15.52919638 134.57738495 21.91498663 133.34179688 28.34936523 C133.17744644 29.22382797 133.01309601 30.09829071 132.84376526 30.99925232 C132.3062653 33.85317229 131.76265293 36.70588776 131.21875 39.55859375 C130.84111548 41.55487713 130.46380129 43.55122113 130.08679199 45.54762268 C129.29928659 49.7128397 128.50892278 53.87750024 127.71630859 58.04174805 C126.69975263 63.38303491 125.68886263 68.7253744 124.67989349 74.06809902 C123.90264815 78.18184802 123.12321567 82.29518006 122.34303284 86.40837288 C121.96934979 88.37909623 121.59616838 90.34991477 121.22349548 92.32082939 C120.70384142 95.06642453 120.18143424 97.81148109 119.65820312 100.55639648 C119.50440689 101.37146667 119.35061066 102.18653687 119.19215393 103.02630615 C118.60488367 106.09449488 117.98916701 109.03249897 117 112 C113.535 112.495 113.535 112.495 110 113 C109.57871826 112.29206299 109.57871826 112.29206299 109.14892578 111.56982422 C98.850502 94.32779787 87.72850774 78.22393862 74.14453125 63.3671875 C72.25461926 61.28105514 70.43688253 59.15350239 68.625 57 C59.43157583 46.53203294 48.19702829 38.18564714 37 30 C36.38672852 29.55124512 35.77345703 29.10249023 35.14160156 28.64013672 C26.09780368 22.11464236 16.49824707 16.95611871 6.50341797 12.02124023 C5.54580566 11.54114502 4.58819336 11.0610498 3.6015625 10.56640625 C2.30726318 9.93134155 2.30726318 9.93134155 0.98681641 9.28344727 C-1 8 -1 8 -2 5 C-1.0625 2.3125 -1.0625 2.3125 0 0 Z " fill="#FFFFFF" transform="translate(1031,70)"/>
<path d="M0 0 C12.42079007 12.033913 18.35877978 28.20231833 18.84643555 45.22460938 C19.05961886 62.67284337 14.66172698 78.81101332 3.25 92.3125 C-8.38531896 104.2077144 -23.651853 109.8155511 -40.0625 110.125 C-53.51725724 110.08194733 -65.32471506 106.47765968 -76.4375 98.75 C-77.08976562 98.31171875 -77.74203125 97.8734375 -78.4140625 97.421875 C-89.81568946 88.77954589 -96.37127097 73.8570456 -98.75 60.1875 C-100.92246043 42.72426036 -98.96099814 23.48913647 -88.125 9 C-86.91791228 7.56447418 -85.68858419 6.14734873 -84.4375 4.75 C-83.83035156 4.05003906 -83.22320313 3.35007812 -82.59765625 2.62890625 C-61.49216324 -20.20300746 -22.92798887 -19.32600875 0 0 Z M-70.5390625 17.04296875 C-79.5003225 29.82106172 -79.96729082 46.45123003 -77.94140625 61.4140625 C-75.46043488 72.26305595 -70.1343361 81.99045086 -60.5625 88 C-51.13219101 93.63999187 -39.84338905 94.33955667 -29.234375 92.0625 C-19.17433581 88.69041983 -12.46860377 83.06575297 -7.4375 73.75 C-1.17146974 60.29705325 0.03985303 43.7872245 -4.0625 29.4375 C-8.03591544 18.78152222 -14.70768391 10.17609801 -25.1875 5.375 C-41.85006823 -1.51778902 -59.00789238 3.72247913 -70.5390625 17.04296875 Z " fill="#FFFFFF" transform="translate(2826.4375,420.25)"/>
<path d="M0 0 C12.2759897 10.39532462 18.67815842 23.87521381 20.75 39.75 C20.85645833 41.16511678 20.93994398 42.5821558 21 44 C21.05994141 45.12728516 21.05994141 45.12728516 21.12109375 46.27734375 C21.65041209 65.48848578 15.86818184 81.80218853 2.6875 95.75 C-9.72717052 107.64040233 -25.03962237 111.4273179 -41.88671875 111.27734375 C-57.91067578 110.50810196 -72.1009811 103.7318343 -83 92 C-95.45241449 76.79494652 -97.99403196 59.07200208 -97 40 C-95.37873883 24.257554 -87.88502367 9.22635021 -75.6953125 -0.91796875 C-53.24353719 -17.7388675 -22.07992653 -17.07565253 0 0 Z M-67 17 C-77.25966193 29.30151111 -77.31563893 45.82780344 -76 61 C-74.4700319 71.55725653 -69.27534187 81.04222651 -60.9296875 87.71875 C-51.42417868 94.03009999 -41.13451836 95.07169739 -30 94 C-26.36464432 93.10507188 -23.27035874 91.80498646 -20 90 C-18.96875 89.443125 -17.9375 88.88625 -16.875 88.3125 C-7.0142442 80.38102251 -1.55570869 70.64995454 0 58 C0.92398763 43.21803479 -0.20573198 29.47291608 -9 17 C-15.64359322 9.55567238 -23.98162121 4.55170246 -34.03125 3.76171875 C-47.99863476 3.46286705 -57.49862074 6.50123839 -67 17 Z " fill="#FFFFFF" transform="translate(2964,419)"/>
<path d="M0 0 C12.20199094 10.33639729 18.88861342 24.02384311 20.9609375 39.77734375 C22.28965218 59.47778409 19.5348923 78.12164925 6.2734375 93.58984375 C-5.011119 105.33119639 -19.59441842 111.55670556 -35.78369141 112.06298828 C-52.39010547 112.278656 -66.73883925 107.64413192 -78.859375 95.98828125 C-79.57867188 95.25867188 -80.29796875 94.5290625 -81.0390625 93.77734375 C-81.61398438 93.21273437 -82.18890625 92.648125 -82.78125 92.06640625 C-94.57951748 79.53456774 -97.21198626 62.28604428 -97.0390625 45.77734375 C-96.2409515 31.74510118 -92.09434911 18.63999917 -83.0390625 7.77734375 C-82.41644531 7.00777344 -81.79382812 6.23820312 -81.15234375 5.4453125 C-60.74346704 -17.37375536 -23.64601076 -17.29380478 0 0 Z M-67.7890625 18.96484375 C-77.09066947 31.53687875 -77.61222589 48.3811995 -75.54296875 63.37109375 C-73.13193126 73.94151802 -68.06903104 83.58450641 -58.7265625 89.46484375 C-57.82292969 90.04621094 -56.91929687 90.62757813 -55.98828125 91.2265625 C-47.1286301 95.8852135 -36.55773858 96.11966053 -26.87109375 94.125 C-16.67107414 90.77294842 -8.90603237 84.34855806 -4.0390625 74.77734375 C2.02171961 62.10823224 2.41438005 44.17189546 -1.6640625 30.83984375 C-5.7811312 21.04208096 -12.12358808 12.25960392 -21.79296875 7.390625 C-38.93356653 0.88587085 -56.04651038 5.03300225 -67.7890625 18.96484375 Z " fill="#FFFFFF" transform="translate(3223.0390625,418.22265625)"/>
<path d="M0 0 C13.44257722 10.5794301 21.3849958 23.77085866 23.71875 40.84765625 C25.37489671 59.41030067 22.75848553 77.30510562 11.2578125 92.328125 C4.35648605 100.49509263 -3.11477243 105.93650724 -13 110 C-13.80308594 110.3403125 -14.60617188 110.680625 -15.43359375 111.03125 C-27.57383887 115.22691871 -45.17141293 115.01243497 -57 110 C-58.46759766 109.39671875 -58.46759766 109.39671875 -59.96484375 108.78125 C-73.87138445 102.46806633 -84.47666146 91.48241461 -89.93359375 77.21875 C-95.99905793 58.91126836 -96.04922857 39.31968651 -88.27734375 21.4296875 C-80.70656754 7.02900614 -69.33564017 -2.33437105 -54.2734375 -8.03125 C-36.65371298 -13.3916169 -14.8473591 -11.14793351 0 0 Z M-64 19 C-73.92574701 31.60004155 -74.03307228 47.69532978 -73 63 C-71.45535198 74.06369838 -65.75622413 83.44050268 -57.2109375 90.49609375 C-48.58066249 96.3665105 -38.38353065 98.1116089 -28.171875 96.57421875 C-18.20037501 94.49043093 -10.14756117 89.7998617 -4.3125 81.3125 C3.64955954 67.28410938 5.4100011 51.04394548 1.8125 35.3125 C-1.42807795 24.52578749 -7.31141505 15.94204165 -17.17578125 10.32421875 C-33.83735436 2.51194588 -51.40577264 5.75714291 -64 19 Z " fill="#FFFFFF" transform="translate(2943,702)"/>
<path d="M0 0 C12.74494109 10.35830881 21.18593265 24.47965847 23 41 C24.40396399 60.23950648 22.19627824 78.81315846 9.44140625 94.19140625 C-0.08016471 104.86946342 -13.21035099 112.00584096 -27.56518555 113.21630859 C-38.9733016 113.72760255 -49.39405971 113.57777765 -60 109 C-61.29550781 108.49146484 -61.29550781 108.49146484 -62.6171875 107.97265625 C-76.60607095 101.84979605 -85.3866866 89.95492609 -90.875 76.125 C-97.0415953 59.50377956 -96.36360862 38.12610858 -89 22 C-82.18616853 7.91168366 -71.56032559 -0.81666948 -57.4609375 -7.17578125 C-38.71613555 -13.45380222 -16.29830004 -11.55144938 0 0 Z M-61.625 16.25 C-72.88780707 29.29114503 -75.03682948 43.17648172 -74 60 C-72.45580572 72.10491275 -67.9730647 82.4933928 -58.43359375 90.34375 C-49.71006345 96.28079149 -39.49054017 98.20584412 -29.13671875 96.5390625 C-18.45754781 94.23225302 -10.17079811 89.14078324 -4 80 C3.41219307 66.11934136 4.58468896 50.78511027 1.24609375 35.5625 C-2.08062425 24.64975142 -8.19685645 15.40348924 -18.27734375 9.71484375 C-33.34043041 2.90349662 -49.28933405 5.67657204 -61.625 16.25 Z " fill="#FFFFFF" transform="translate(2668,702)"/>
<path d="M0 0 C10.33040741 8.93031556 13.82119859 22.0978003 14.86000061 35.24539185 C15.25416633 42.31043596 15.18375824 49.37975331 15.16015625 56.453125 C15.15828673 58.11749224 15.15686536 59.78186004 15.15586853 61.44622803 C15.15208535 65.78620983 15.1422919 70.12615714 15.13116455 74.46612549 C15.12085918 78.911006 15.11635153 83.35589219 15.11132812 87.80078125 C15.10066505 96.49220494 15.08310326 105.18359418 15.0625 113.875 C8.4625 113.875 1.8625 113.875 -4.9375 113.875 C-4.95208252 111.54469727 -4.96666504 109.21439453 -4.98168945 106.81347656 C-5.03225203 99.07411536 -5.09888399 91.33495078 -5.17321491 83.59578323 C-5.21775251 78.9081116 -5.25704426 74.22052356 -5.28393555 69.53271484 C-5.31013549 65.00026928 -5.35065303 60.46814834 -5.40068626 55.93590546 C-5.41724298 54.21539122 -5.42882639 52.49482099 -5.43511391 50.77423859 C-5.20565503 32.66442811 -5.20565503 32.66442811 -12.9375 16.875 C-20.51615666 10.81207467 -28.5527069 10.11893611 -37.9375 10.875 C-45.78902436 12.23699912 -53.35451285 15.57541541 -58.5390625 21.796875 C-62.89184546 28.36423175 -64.23266996 35.10053855 -64.25634766 42.92163086 C-64.26639328 43.69318512 -64.2764389 44.46473938 -64.28678894 45.25967407 C-64.31745095 47.78639036 -64.33460835 50.31300153 -64.3515625 52.83984375 C-64.37028785 54.60104771 -64.38986227 56.36224282 -64.4102478 58.12342834 C-64.46143067 62.7412493 -64.50113023 67.3590993 -64.53839111 71.97705078 C-64.57851785 76.69636131 -64.62957053 81.41555248 -64.6796875 86.13476562 C-64.77628281 95.38143463 -64.85972899 104.62815349 -64.9375 113.875 C-71.5375 113.875 -78.1375 113.875 -84.9375 113.875 C-84.9375 74.605 -84.9375 35.335 -84.9375 -5.125 C-78.3375 -5.125 -71.7375 -5.125 -64.9375 -5.125 C-64.4425 1.805 -64.4425 1.805 -63.9375 8.875 C-63.15375 7.84375 -62.37 6.8125 -61.5625 5.75 C-47.2912243 -10.76056252 -17.38048059 -12.19227743 0 0 Z " fill="#FFFFFF" transform="translate(2805.9375,699.125)"/>
<path d="M0 0 C8.66949056 7.61966944 11.40727167 15.6087142 13 26.7578125 C6.4 26.7578125 -0.2 26.7578125 -7 26.7578125 C-7.99 23.7878125 -8.98 20.8178125 -10 17.7578125 C-14.80552459 11.78337652 -19.76124416 9.70903674 -27.25 8.8828125 C-34.77588178 8.47090563 -41.39365104 9.48315884 -47.5 14.1328125 C-50.59776426 17.38546498 -51.96932327 19.35626254 -52.02734375 23.8984375 C-51.78820243 27.60206208 -51.25742017 30.27514967 -49.5 33.5703125 C-42.60489997 39.60352503 -33.47532841 40.94116109 -24.75 42.6953125 C5.19837821 49.06585317 5.19837821 49.06585317 12.9375 60.8828125 C18.03859819 69.49415793 17.29053589 82.54111675 15.31640625 92.05078125 C12.13489072 100.56562573 6.66327401 105.717872 -0.94921875 110.3984375 C-9.59681359 114.25165517 -17.9769124 115.28557458 -27.375 115.1953125 C-28.47191162 115.18846436 -29.56882324 115.18161621 -30.69897461 115.17456055 C-43.96311221 114.91169966 -54.76199942 111.62440939 -64.6875 102.5703125 C-72.05918694 94.7442065 -73.77850727 86.19602313 -75 75.7578125 C-68.4 75.7578125 -61.8 75.7578125 -55 75.7578125 C-54.5875 77.2840625 -54.175 78.8103125 -53.75 80.3828125 C-51.93034913 86.34722368 -50.02472834 90.32859249 -44.8125 94.0078125 C-34.96759349 99.04571775 -23.41629638 98.89333029 -13 95.7578125 C-8.61415751 93.44527737 -5.97725815 91.33672611 -4 86.7578125 C-2.82449762 81.15157039 -2.66175655 77.14593871 -5 71.7578125 C-9.17549181 67.72459671 -12.60504017 65.86208562 -18.25 64.1953125 C-18.93747314 63.98970703 -19.62494629 63.78410156 -20.33325195 63.57226562 C-25.56759568 62.0510032 -30.85611597 60.88101486 -36.1875 59.7578125 C-48.77468658 57.06698095 -60.8772758 53.87534746 -68.4375 42.6171875 C-72.43562873 34.45434135 -72.39262766 23.69090076 -70.33984375 14.9453125 C-66.1301547 4.44842552 -57.70431659 -1.55024555 -47.83984375 -6.27734375 C-32.96986871 -11.91587044 -12.70937762 -9.29840495 0 0 Z " fill="#FFFFFF" transform="translate(3459,700.2421875)"/>
<path d="M0 0 C9.7870021 8.93964261 13.94189814 18.60891201 15.8046875 31.6484375 C9.2046875 31.6484375 2.6046875 31.6484375 -4.1953125 31.6484375 C-5.278125 28.6165625 -5.278125 28.6165625 -6.3828125 25.5234375 C-9.44599037 17.6430274 -12.2780711 12.97276701 -20.1796875 9.4609375 C-30.38234176 5.34823966 -41.44093797 5.01727134 -51.6640625 9.33203125 C-61.65093034 14.525819 -67.29252321 21.83919427 -71.0078125 32.3984375 C-75.6974902 47.29171698 -74.40455458 64.66077613 -67.4453125 78.5234375 C-62.4240585 87.09781472 -55.71952217 91.19489087 -46.3984375 94.234375 C-35.56008429 96.27137046 -24.25767076 95.22319534 -14.921875 89.17578125 C-7.39713783 83.25949161 -4.76156158 75.63030926 -2.1953125 66.6484375 C3.7446875 66.6484375 9.6846875 66.6484375 15.8046875 66.6484375 C15.21783181 79.9504999 10.14819337 90.61091105 0.5546875 99.8046875 C-5.46162187 104.97254298 -11.70641111 108.11798792 -19.1953125 110.6484375 C-19.92105469 110.89464844 -20.64679687 111.14085937 -21.39453125 111.39453125 C-35.91128061 115.40391917 -52.81042538 112.65615477 -66.0703125 105.9609375 C-80.30896433 97.43057402 -88.87299195 85.55861352 -93.1953125 69.6484375 C-97.53499405 49.5693139 -94.72696971 30.27618219 -84.1953125 12.6484375 C-75.19881265 0.39717425 -62.58011523 -7.58001704 -47.6953125 -10.6640625 C-31.19272086 -13.15010572 -13.25630656 -10.83606802 0 0 Z " fill="#FFFFFF" transform="translate(2554.1953125,417.3515625)"/>
<path d="M0 0 C10.02575116 8.16198973 14.7761039 17.50404027 17.4375 29.984375 C17.4375 30.974375 17.4375 31.964375 17.4375 32.984375 C10.8375 32.984375 4.2375 32.984375 -2.5625 32.984375 C-3.14 31.293125 -3.7175 29.601875 -4.3125 27.859375 C-7.3378631 19.66568328 -10.67971399 14.85563646 -18.5625 10.984375 C-28.76117069 7.11830282 -39.39843647 6.96051971 -49.5625 10.984375 C-59.43718095 16.09148076 -65.30001358 23.77905666 -68.9375 34.171875 C-73.36913594 49.07656512 -72.96112312 65.90866994 -65.875 79.984375 C-60.68871166 88.56022771 -54.05774731 93.06522802 -44.5625 95.984375 C-34.12166277 98.49017594 -22.9060377 96.95578912 -13.6875 91.359375 C-5.89734852 85.62966213 -2.87587384 78.1093496 -0.5625 68.984375 C5.3775 68.984375 11.3175 68.984375 17.4375 68.984375 C17.4375 80.98432919 12.55593848 90.94473343 4.69921875 99.984375 C-5.95249118 110.20271772 -19.96049045 114.38345606 -34.375 114.296875 C-35.35259277 114.29123535 -36.33018555 114.2855957 -37.33740234 114.27978516 C-44.15033958 114.16489007 -50.22895721 113.66825188 -56.5625 110.984375 C-58.03009766 110.38109375 -58.03009766 110.38109375 -59.52734375 109.765625 C-74.22567511 103.09299033 -83.85245659 91.86693496 -89.5625 76.984375 C-89.88476562 76.15035156 -90.20703125 75.31632813 -90.5390625 74.45703125 C-95.95125538 57.23411838 -93.85142755 36.16916703 -85.875 20.171875 C-78.18203683 7.1634222 -66.25211331 -3.40690928 -51.57080078 -7.58203125 C-34.49508231 -11.78990907 -14.62623588 -10.18612856 0 0 Z " fill="#FFFFFF" transform="translate(3345.5625,701.015625)"/>
<path d="M0 0 C9.72481801 7.40118893 15.51395935 16.25104186 17.58203125 28.4296875 C17.89140625 31.0284375 17.89140625 31.0284375 18.20703125 33.6796875 C11.60703125 33.6796875 5.00703125 33.6796875 -1.79296875 33.6796875 C-2.34984375 32.0090625 -2.90671875 30.3384375 -3.48046875 28.6171875 C-6.17577776 21.35197739 -8.51061815 16.63025238 -15.48046875 12.8671875 C-25.10756086 8.55845942 -35.03816434 7.32271545 -45.2734375 10.43359375 C-47.56191122 11.37497967 -49.65349359 12.43767009 -51.79296875 13.6796875 C-52.48132812 14.07929687 -53.1696875 14.47890625 -53.87890625 14.890625 C-62.79340957 20.79947203 -67.64483863 30.42021806 -69.79296875 40.6796875 C-70.30679429 43.35056283 -70.62074629 45.96587906 -70.79296875 48.6796875 C-70.84582031 49.39125 -70.89867188 50.1028125 -70.953125 50.8359375 C-71.44472788 63.66036052 -68.87913642 77.74517582 -60.12890625 87.54296875 C-52.26144635 94.78175034 -41.955464 98.29041416 -31.3125 97.9921875 C-22.64186019 96.91675931 -13.88225034 94.17122232 -7.79296875 87.6796875 C-3.33700864 81.73840735 -1.6367047 77.0546313 0.20703125 69.6796875 C6.47703125 69.6796875 12.74703125 69.6796875 19.20703125 69.6796875 C16.72300566 83.61783111 12.34458164 95.81949583 0.66796875 104.5859375 C-14.33038293 114.5566727 -31.17845247 117.37107883 -48.9296875 114.03125 C-63.22488114 110.28536499 -75.2001089 102.31979246 -83.10546875 89.7421875 C-92.50863515 72.88942113 -94.83227129 52.77800471 -90.16796875 33.9921875 C-85.86471995 19.2831733 -76.90530286 6.86445656 -63.79296875 -1.3203125 C-44.24597111 -11.04209969 -18.80323225 -12.53548817 0 0 Z " fill="#FFFFFF" transform="translate(2533.79296875,700.3203125)"/>
<path d="M0 0 C7.26 0 14.52 0 22 0 C33.90783402 27.23074496 45.44699353 54.61727874 57 82 C65.50674043 61.47816459 73.48662285 40.77945647 81.34625244 20.00222778 C83.87286514 13.32518315 86.42922422 6.66019518 89 0 C95.93 0 102.86 0 110 0 C106.6249813 10.12505611 106.6249813 10.12505611 105.07739258 13.90087891 C104.72822281 14.75685669 104.37905304 15.61283447 104.01930237 16.49475098 C103.6481279 17.39624878 103.27695343 18.29774658 102.89453125 19.2265625 C102.30036659 20.67959778 102.30036659 20.67959778 101.69419861 22.1619873 C100.40307788 25.317471 99.10783412 28.47124386 97.8125 31.625 C96.90697831 33.83567307 96.0017078 36.04644904 95.09667969 38.25732422 C92.82372401 43.80789623 90.54738994 49.35707498 88.26983643 54.90576172 C86.40619005 59.44694973 84.54495892 63.98912662 82.68359375 68.53125 C79.7667237 75.64756315 76.84628256 82.76240444 73.92433167 89.87663269 C71.54823284 95.66266859 69.17584606 101.45021925 66.8046875 107.23828125 C54.90201612 136.29038093 54.90201612 136.29038093 49.0625 150.375 C48.45172607 151.85504517 48.45172607 151.85504517 47.82861328 153.36499023 C47.46364746 154.24227783 47.09868164 155.11956543 46.72265625 156.0234375 C46.25484741 157.15144775 46.25484741 157.15144775 45.77758789 158.30224609 C45 160 45 160 44 161 C42.5112814 161.08669432 41.018555 161.10703494 39.52734375 161.09765625 C38.62822266 161.09443359 37.72910156 161.09121094 36.80273438 161.08789062 C35.85720703 161.07951172 34.91167969 161.07113281 33.9375 161.0625 C32.98810547 161.05798828 32.03871094 161.05347656 31.06054688 161.04882812 C28.70696631 161.03700109 26.35352419 161.01968094 24 161 C25.9988897 154.35123749 28.69416904 148.31697533 31.80078125 142.12109375 C42.92609254 121.81128161 42.92609254 121.81128161 45.48046875 99.72265625 C43.6608618 94.64476091 40.87929379 90.25860514 37.82861328 85.83251953 C34.51465717 80.69920594 32.33258839 75.041204 29.9375 69.4375 C28.84572785 67.00429394 27.74941364 64.57354468 26.6484375 62.14453125 C22.76452915 53.52112059 18.96721679 44.85986943 15.18338013 36.19216919 C14.44814792 34.50825542 13.71207237 32.82470956 12.97506714 31.14157104 C8.46119659 20.82946476 4.12622008 10.47375426 0 0 Z " fill="#FFFFFF" transform="translate(2439,123)"/>
<path d="M0 0 C7.26 0 14.52 0 22 0 C30.28477357 22.68706084 38.34404169 45.45026207 46.3125 68.25 C46.55248592 68.93665237 46.79247185 69.62330475 47.03973007 70.33076477 C50.0295226 78.88611737 53.01620884 87.44255237 56 96 C59.08689365 88.53070415 61.80366432 80.96763681 64.4140625 73.3203125 C65.04839665 71.4736501 65.68273292 69.62698843 66.31717491 67.78036308 C67.20063617 65.20703964 68.08186647 62.63295479 68.9630127 60.05883789 C75.83426332 39.98611941 82.81716039 19.96302194 90 0 C96.93 0 103.86 0 111 0 C109.24533368 5.84888774 107.51317867 11.5706911 105.49609375 17.3125 C105.26077942 17.98357285 105.02546509 18.65464569 104.78302002 19.34605408 C104.00380354 21.56496892 103.22086276 23.78254583 102.4375 26 C102.16354401 26.77779816 101.88958801 27.55559631 101.60733032 28.35696411 C90.93913811 58.64264335 79.98413468 88.82776114 69 119 C60.42 119 51.84 119 43 119 C32.4028741 90.39666523 21.99441998 61.72624381 11.63206482 33.03720093 C9.62633259 27.48644838 7.61456779 21.93803084 5.58886719 16.39453125 C5.21325653 15.36585938 4.83764587 14.3371875 4.45065308 13.27734375 C3.74480822 11.34583825 3.03762013 9.41482292 2.32888794 7.484375 C1.86613968 6.21787109 1.86613968 6.21787109 1.39404297 4.92578125 C1.12332977 4.18755127 0.85261658 3.44932129 0.57369995 2.6887207 C0 1 0 1 0 0 Z " fill="#FFFFFF" transform="translate(2617,123)"/>
<path d="M0 0 C0.7425 -0.01224609 1.485 -0.02449219 2.25 -0.03710938 C2.97960938 -0.03904297 3.70921875 -0.04097656 4.4609375 -0.04296875 C5.44392822 -0.04913208 5.44392822 -0.04913208 6.44677734 -0.05541992 C8.625 0.1875 8.625 0.1875 14.625 2.1875 C14.625 7.7975 14.625 13.4075 14.625 19.1875 C12.975 18.8575 11.325 18.5275 9.625 18.1875 C7.3152668 18.047025 5.00130462 17.96764729 2.6875 17.9375 C1.50285156 17.91171875 0.31820312 17.8859375 -0.90234375 17.859375 C-4.74376011 18.22234348 -7.10034445 19.1815341 -10.375 21.1875 C-14.02374029 26.09442659 -14.49352872 30.49151267 -14.69140625 36.484375 C-14.72951416 37.57073242 -14.76762207 38.65708984 -14.80688477 39.77636719 C-14.84998779 41.14954102 -14.89309082 42.52271484 -14.9375 43.9375 C-15.081875 48.31 -15.22625 52.6825 -15.375 57.1875 C-5.805 57.1875 3.765 57.1875 13.625 57.1875 C13.625 62.7975 13.625 68.4075 13.625 74.1875 C4.055 74.1875 -5.515 74.1875 -15.375 74.1875 C-15.375 108.1775 -15.375 142.1675 -15.375 177.1875 C-21.975 177.1875 -28.575 177.1875 -35.375 177.1875 C-35.375 143.1975 -35.375 109.2075 -35.375 74.1875 C-40.985 74.1875 -46.595 74.1875 -52.375 74.1875 C-52.375 68.5775 -52.375 62.9675 -52.375 57.1875 C-46.765 57.1875 -41.155 57.1875 -35.375 57.1875 C-35.40980469 55.37765625 -35.44460937 53.5678125 -35.48046875 51.703125 C-35.50862998 49.28125937 -35.53592761 46.85938359 -35.5625 44.4375 C-35.58763672 43.25027344 -35.61277344 42.06304687 -35.63867188 40.83984375 C-35.73627837 28.93185112 -34.17117975 18.53892789 -26.375 9.1875 C-19.22153171 2.03403171 -9.74447953 0.00837155 0 0 Z " fill="#FFFFFF" transform="translate(3311.375,350.8125)"/>
<path d="M0 0 C6.6 0 13.2 0 20 0 C20 58.08 20 116.16 20 176 C13.4 176 6.8 176 0 176 C0 117.92 0 59.84 0 0 Z " fill="#FFFFFF" transform="translate(3015,352)"/>
<path d="M0 0 C6.6 0 13.2 0 20 0 C20 39.27 20 78.54 20 119 C13.4 119 6.8 119 0 119 C0 79.73 0 40.46 0 0 Z " fill="#FFFFFF" transform="translate(2573,123)"/>
<path d="M0 0 C6.27 0 12.54 0 19 0 C19 39.27 19 78.54 19 119 C12.73 119 6.46 119 0 119 C0 79.73 0 40.46 0 0 Z " fill="#FFFFFF" transform="translate(3204,694)"/>
<path d="M0 0 C5.99963789 4.70241889 5.99963789 4.70241889 6.6640625 9.18359375 C6.82550611 14.12230066 6.70231969 17.95511897 3.3125 21.8125 C-0.38071665 24.96259655 -3.77535512 25.33991985 -8.47265625 25.16015625 C-12.02693214 24.60225404 -14.0470828 23.20144889 -16.6875 20.8125 C-19.81862821 16.46932216 -20.06377412 13.05249274 -19.26171875 7.9296875 C-18.40843512 4.78356691 -17.07603038 3.00198618 -14.6875 0.8125 C-9.96975981 -1.86513632 -4.9807517 -2.20079726 0 0 Z " fill="#FFFFFF" transform="translate(3219.6875,645.1875)"/>
<path d="M0 0 C4.89270769 2.40019623 7.18686184 4.86277521 9 10 C9.53544952 14.28359614 9.31035287 16.40228336 7.3125 20.25 C4.54131763 23.54546012 2.45309777 25.64101008 -1.921875 26.28125 C-7.41818568 26.52920387 -10.56390257 25.08808351 -14.75 21.5 C-17.34414423 18.38702692 -17.28249645 14.89930617 -17.2109375 10.9921875 C-16.74529785 6.59447971 -14.55600977 4.47842702 -11.3125 1.6875 C-7.28862322 -0.36239949 -4.42356087 -0.86528735 0 0 Z " fill="#FFFFFF" transform="translate(2587,73)"/>
</svg>
